<svg width="301" height="284" viewBox="0 0 301 284" fill="none" xmlns="http://www.w3.org/2000/svg">
<rect width="301" height="284" fill="white"/>
<path d="M116.585 102.5C123.715 102.5 129.887 103.688 135.1 106.065C140.39 108.442 144.453 111.815 147.29 116.185C150.127 120.555 151.545 125.73 151.545 131.71C151.545 137.613 150.127 142.788 147.29 147.235C144.453 151.605 140.39 154.978 135.1 157.355C129.887 159.655 123.715 160.805 116.585 160.805H100.37V183H81.7399V102.5H116.585ZM115.55 145.625C121.147 145.625 125.402 144.437 128.315 142.06C131.228 139.607 132.685 136.157 132.685 131.71C132.685 127.187 131.228 123.737 128.315 121.36C125.402 118.907 121.147 117.68 115.55 117.68H100.37V145.625H115.55ZM191.465 184.38C185.102 184.38 178.93 183.537 172.95 181.85C167.047 180.087 162.293 177.825 158.69 175.065L165.015 161.035C168.465 163.565 172.567 165.597 177.32 167.13C182.073 168.663 186.827 169.43 191.58 169.43C196.87 169.43 200.78 168.663 203.31 167.13C205.84 165.52 207.105 163.412 207.105 160.805C207.105 158.888 206.338 157.317 204.805 156.09C203.348 154.787 201.432 153.752 199.055 152.985C196.755 152.218 193.612 151.375 189.625 150.455C183.492 148.998 178.47 147.542 174.56 146.085C170.65 144.628 167.277 142.29 164.44 139.07C161.68 135.85 160.3 131.557 160.3 126.19C160.3 121.513 161.565 117.297 164.095 113.54C166.625 109.707 170.42 106.678 175.48 104.455C180.617 102.232 186.865 101.12 194.225 101.12C199.362 101.12 204.383 101.733 209.29 102.96C214.197 104.187 218.49 105.95 222.17 108.25L216.42 122.395C208.983 118.178 201.547 116.07 194.11 116.07C188.897 116.07 185.025 116.913 182.495 118.6C180.042 120.287 178.815 122.51 178.815 125.27C178.815 128.03 180.233 130.1 183.07 131.48C185.983 132.783 190.392 134.087 196.295 135.39C202.428 136.847 207.45 138.303 211.36 139.76C215.27 141.217 218.605 143.517 221.365 146.66C224.202 149.803 225.62 154.058 225.62 159.425C225.62 164.025 224.317 168.242 221.71 172.075C219.18 175.832 215.347 178.822 210.21 181.045C205.073 183.268 198.825 184.38 191.465 184.38Z" fill="black"/>
</svg>
